# xmcd CD database file
#
# Track frame offsets:
#	150
#	24709
#	60208
#	70912
#	91004
#	106951
#	123287
#	148029
#	175324
#
# Disc length: 2768 seconds
#
# Revision: 0
# Processed by: cddbd v1.5.1PL0 Copyright (c) Steve Scherf et al.
# Submitted via: CDex 1.51
#
DISCID=710ace09
DTITLE=Muddy Waters - Hard Again
DYEAR=1977
DGENRE=Blues
TTITLE0=Mannish Boy
TTITLE1=Bus Driver
TTITLE2=I Want To Be Loved
TTITLE3=Jealous Hearted Man
TTITLE4=I Can't Be Satisfied
TTITLE5=The Blues Had A Baby And They Named It Rock and Roll
TTITLE6=Deep Down In Florida
TTITLE7=Crosseyed Cat
TTITLE8=Little Girl
EXTD=YEAR: 1977
EXTT0=
EXTT1=
EXTT2=
EXTT3=
EXTT4=
EXTT5=
EXTT6=
EXTT7=
EXTT8=
PLAYORDER=
